HIERARCHY
ROOT Hips
{
  OFFSET 279.157 85.6768 304.565
  CHANNELS 6 Xposition Yposition Zposition Zrotation Xrotation Yrotation
  JOINT LeftUpLeg
  {
    OFFSET 8.64259 1.95398 -2.38835
    CHANNELS 3 Zrotation Xrotation Yrotation
    JOINT LeftLeg
    {
      OFFSET 43.7702 0 0
      CHANNELS 3 Zrotation Xrotation Yrotation
      JOINT LeftFoot
      {
        OFFSET 40.6238 0 0
        CHANNELS 3 Zrotation Xrotation Yrotation
        JOINT LeftToeBase
        {
          OFFSET 12.7242 0 0
          CHANNELS 3 Zrotation Xrotation Yrotation
          End Site
          {
            OFFSET 0 0 0
          }
        }
      }
    }
  }
  JOINT RightUpLeg
  {
    OFFSET -8.2249 1.95398 -2.59336
    CHANNELS 3 Zrotation Xrotation Yrotation
    JOINT RightLeg
    {
      OFFSET 43.5653 0 0
      CHANNELS 3 Zrotation Xrotation Yrotation
      JOINT RightFoot
      {
        OFFSET 40.6238 0 0
        CHANNELS 3 Zrotation Xrotation Yrotation
        JOINT RightToeBase
        {
          OFFSET 12.7242 0 0
          CHANNELS 3 Zrotation Xrotation Yrotation
          End Site
          {
            OFFSET 0 0 0
          }
        }
      }
    }
  }
  JOINT Spine
  {
    OFFSET 0.165834 0.87714 6.61349
    CHANNELS 3 Zrotation Xrotation Yrotation
    JOINT Spine1
    {
      OFFSET 7.38963 1.71661e-005 0
      CHANNELS 3 Zrotation Xrotation Yrotation
      JOINT Spine2
      {
        OFFSET 11.9445 1.14441e-005 0
        CHANNELS 3 Zrotation Xrotation Yrotation
        JOINT Spine3
        {
          OFFSET 14.7254 4.19617e-005 0
          CHANNELS 3 Zrotation Xrotation Yrotation
          JOINT Spine4
          {
            OFFSET 10.9679 0 0
            CHANNELS 3 Zrotation Xrotation Yrotation
            JOINT RightShoulder
            {
              OFFSET 2.46616 -1.6653 3.69651
              CHANNELS 3 Zrotation Xrotation Yrotation
              JOINT RightArm
              {
                OFFSET 13.0012 0 0
                CHANNELS 3 Zrotation Xrotation Yrotation
                JOINT RightForeArm
                {
                  OFFSET 28.7848 1.52588e-005 0
                  CHANNELS 3 Zrotation Xrotation Yrotation
                  JOINT RightHand
                  {
                    OFFSET 26.5688 1.52588e-005 0
                    CHANNELS 3 Zrotation Xrotation Yrotation
                    End Site
                    {
                      OFFSET 0 0 0
                    }
                  }
                }
              }
            }
            JOINT LeftShoulder
            {
              OFFSET 2.38034 -1.29275 -3.7523
              CHANNELS 3 Zrotation Xrotation Yrotation
              JOINT LeftArm
              {
                OFFSET 16.3182 6.10351e-005 0
                CHANNELS 3 Zrotation Xrotation Yrotation
                JOINT LeftForeArm
                {
                  OFFSET 27.0901 0 0
                  CHANNELS 3 Zrotation Xrotation Yrotation
                  JOINT LeftHand
                  {
                    OFFSET 24.5451 1.52588e-005 0
                    CHANNELS 3 Zrotation Xrotation Yrotation
                    End Site
                    {
                      OFFSET 0 0 0
                    }
                  }
                }
              }
            }
            JOINT Neck
            {
              OFFSET 5.0226 -0.0266342 0
              CHANNELS 3 Zrotation Xrotation Yrotation
              JOINT Head
              {
                OFFSET 6.69364 2.86102e-005 0
                CHANNELS 3 Zrotation Xrotation Yrotation
                End Site
                {
                  OFFSET 0 0 0
                }
              }
            }
          }
        }
      }
    }
  }
}
MOTION
Frames:	13
Frame Time:	0.0416667
6.25711 101.695 24.7544 -141.356 -83.8274 -141.834 -174.624 -3.1636 89.2192 -11.568 6.1104 0.212246 69.4391 5.90228 0.17023 18.2266 -7.97673 6.17917 173.444 -1.95895 88.313 -13.8898 -11.2534 -0.572519 67.8737 -4.35785 1.92868 26.5183 0.209986 3.77773 0.12405 7.42501 -90.052 12.024 0.222146 -0.12801 0.353057 0.216298 -0.13768 -22.1822 0.250344 -0.0553287 -2.1696 0.250346 -0.0553397 88.9494 -32.2867 -107.923 40.9145 -16.9657 -8.28068 2.87428 -27.9401 -14.3816 -24.9105 -0.963128 -7.40194 -87.7707 -53.1643 82.6126 -23.1897 16.1188 -11.6416 -0.427851 15.2237 -11.3325 2.14543 0.00276228 -2.00507 9.6275 0.202426 -0.979614 -9.52993 0.279601 2.08328 
6.26181 101.688 24.7519 -139.926 -83.767 -140.356 -174.824 -3.04323 89.0842 -11.9358 5.3305 0.44757 70.4415 6.05749 -1.28922 17.0028 -9.85869 8.97617 173.626 -1.94516 88.3886 -13.6861 -12.7635 -0.771388 67.1348 -4.11458 1.3895 26.6195 0.308643 2.90736 0.212993 7.40723 -90.1084 12.0599 0.372265 -0.256912 0.388926 0.3606 -0.273049 -22.1466 0.432267 -0.133146 -2.13392 0.432265 -0.133152 89.4819 -31.726 -107.115 41.0694 -17.5762 -7.54802 3.96663 -30.0041 -15.6107 -27.4974 -1.50328 -5.14591 -88.5607 -54.0509 81.6259 -22.4286 16.3481 -11.9615 -0.876996 14.8881 -10.8548 3.06254 0.037521 -1.63432 9.01467 0.179873 -0.2504 -8.64099 0.147078 1.4544 
6.29617 101.683 24.7192 -134.885 -83.5901 -135.069 -174.673 -2.72746 89.2836 -12.0783 4.96334 0.336549 70.6853 6.10479 -1.1729 17.1049 -9.85786 9.14138 173.903 -1.75202 88.6988 -13.5227 -12.9894 -0.878716 67.2046 -4.32953 0.890386 25.9339 0.290267 4.38289 0.322163 7.37647 -90.1669 12.1219 0.561507 -0.395141 0.451014 0.543569 -0.419476 -22.085 0.654305 -0.208111 -2.07231 0.654294 -0.208119 89.889 -31.4116 -106.446 41.4443 -17.0333 -8.15376 3.28029 -30.1553 -14.154 -25.2051 -1.5149 -4.96603 -89.0703 -54.3887 80.9571 -22.3703 16.2445 -12.0627 -1.13295 14.556 -10.3902 5.76876 0.146241 -1.08789 8.61571 -0.0773769 -0.172833 -8.31 -0.144345 1.90864 
6.30055 101.694 24.6178 -135.405 -83.6289 -135.731 -174.66 -2.67472 89.1972 -12.1326 5.13603 0.253057 70.6053 6.06234 -1.09538 16.9666 -9.70377 8.52306 173.848 -1.68515 88.5744 -13.5216 -13.0005 -0.895807 67.1841 -4.29728 1.04183 26.1338 0.326558 3.7713 0.30657 7.38017 -90.1611 12.1144 0.533329 -0.380244 0.443519 0.516067 -0.403352 -22.0923 0.622939 -0.202376 -2.07969 0.622937 -0.202383 89.8138 -31.2941 -106.635 41.4245 -17.1553 -8.05333 3.95182 -29.9884 -13.753 -25.7568 -1.45207 -5.29496 -89.04 -54.5272 81.0259 -22.0609 16.7991 -11.955 -1.54054 13.9048 -10.7046 10.23 0.502184 0.997921 8.80941 0.0475757 0.156121 -8.81642 -0.0709169 1.40239 
6.32845 101.714 24.5768 -135.399 -83.5085 -135.757 -174.698 -2.88546 89.1327 -11.8454 5.12193 0.264144 70.4616 6.09366 -0.921203 16.8863 -9.7693 8.5525 173.939 -1.57113 88.5543 -13.9074 -12.7233 -1.02286 66.8318 -3.79413 2.05466 27.1831 0.196037 2.44502 0.316266 7.38822 -90.1696 12.0984 0.548577 -0.398902 0.427476 0.530496 -0.422661 -22.1084 0.643098 -0.215578 -2.09577 0.643109 -0.215578 89.8162 -31.0989 -106.704 41.5943 -17.0911 -7.95898 4.09724 -29.6767 -13.6285 -25.4273 -1.37745 -5.58877 -89.1277 -54.5714 80.9089 -21.9037 17.2955 -11.9466 -2.1225 13.2707 -10.6831 15.798 1.09758 3.0499 8.96381 0.0513168 0.261023 -9.14602 -0.0836791 1.23363 
6.3952 101.707 24.5592 -135.504 -83.6166 -135.88 -174.775 -2.69413 89.0624 -12.1134 4.93835 0.324907 70.6834 6.08922 -1.28931 16.784 -9.80537 8.47168 173.822 -1.5721 88.4976 -13.7784 -13.0389 -0.934795 67.0986 -4.18632 0.9885 27.102 0.132559 3.06213 0.284619 7.35171 -90.1573 12.1713 0.491334 -0.368467 0.50037 0.47464 -0.389735 -22.0354 0.579355 -0.203758 -2.02273 0.579357 -0.203762 89.6233 -31.0707 -107.09 41.8024 -17.1132 -7.60684 4.02011 -29.6791 -14.2807 -26.0578 -1.41808 -5.41774 -88.9045 -54.1849 81.1574 -22.4392 17.3432 -11.4853 -2.42168 12.9369 -10.8128 21.4166 1.9349 5.22261 8.5311 0.0628496 -0.0669386 -8.96332 -0.0200813 1.57397 
6.4079 101.709 24.5738 -133.417 -83.5622 -133.485 -174.628 -2.48167 89.3439 -12.2142 4.95673 0.280169 70.627 6.06494 -1.06339 17.0813 -9.72343 8.76481 173.988 -1.57149 88.7751 -13.5613 -12.9215 -0.903082 67.075 -4.13699 1.3073 26.3041 0.319872 3.49109 0.294813 7.33855 -90.1926 12.1977 0.494854 -0.439485 0.526753 0.475035 -0.460849 -22.0089 0.604052 -0.270439 -1.99624 0.604054 -0.270447 89.4935 -31.0492 -107.351 41.8564 -16.7477 -7.58993 3.3155 -29.5184 -14.1956 -24.4189 -1.38592 -5.43861 -88.799 -54.1509 81.3022 -22.6503 17.1476 -11.3833 -2.61039 13.281 -10.7889 27.0398 2.94626 7.15747 8.43973 0.047899 -0.0818263 -8.84177 -0.0334217 1.63188 
6.31394 101.708 24.5286 -132.154 -83.678 -132.303 -174.631 -2.25611 89.3549 -12.2488 4.93119 0.240204 70.6658 6.06607 -1.17388 16.8508 -9.75247 8.45159 174.092 -1.33661 88.8336 -13.5575 -12.8955 -0.956378 66.661 -3.82089 1.68782 27.0554 0.191759 2.75843 0.298845 7.327 -90.1859 12.2207 0.50598 -0.427582 0.549807 0.486671 -0.449442 -21.9859 0.611094 -0.255743 -1.97325 0.611094 -0.255744 89.5728 -31.1194 -107.17 41.6587 -16.9743 -7.65679 4.06126 -29.624 -13.5954 -24.9636 -1.34204 -5.74069 -88.8603 -54.0015 81.1874 -22.6619 17.2783 -11.551 -3.01908 13.3869 -10.5266 31.9272 3.87375 8.42615 8.84802 0.0354691 -0.0505335 -9.3782 -0.0602708 1.63518 
6.33876 101.707 24.5954 -133.512 -83.495 -133.734 -174.754 -2.61098 89.1905 -12.1247 4.31405 0.384572 70.684 5.96297 -1.45317 16.8513 -9.54801 7.94031 173.93 -1.65032 88.6608 -13.5532 -12.7419 -0.931459 67.734 -4.54621 1.2618 25.3398 0.59 3.67509 0.302055 7.35036 -90.1809 12.1741 0.514832 -0.41817 0.503144 0.495917 -0.440434 -22.0326 0.616706 -0.244111 -2.01995 0.616696 -0.244124 89.6806 -31.0307 -106.994 41.8146 -17.0977 -7.64484 4.03824 -29.7964 -14.2617 -25.6023 -1.50013 -4.96689 -89.0214 -53.8665 80.9315 -22.7728 17.2831 -11.4818 -3.24993 13.6519 -10.3162 35.519 4.53992 9.06404 8.62233 -0.0981878 -0.248807 -9.01107 -0.176967 2.17788 
6.30273 101.683 24.6328 -132.56 -83.573 -132.925 -174.82 -2.55295 89.0691 -12.0686 4.52887 0.361828 70.6365 5.9941 -1.38931 17.2495 -9.53122 8.56485 173.912 -1.44497 88.5571 -13.6152 -13.1305 -0.958491 66.9237 -3.97432 1.66135 27.0691 0.232941 2.42321 0.304518 7.33828 -90.1822 12.1982 0.519056 -0.42153 0.527264 0.499995 -0.443971 -22.0085 0.62174 -0.246048 -1.99585 0.621738 -0.246047 89.7052 -31.0185 -106.95 41.7407 -17.0682 -7.66276 3.55786 -29.4508 -14.3302 -25.3305 -1.44367 -5.15815 -89.1007 -54.1587 80.8716 -22.4231 17.4151 -11.5611 -3.4861 13.3342 -10.2251 36.9549 4.89318 9.51728 8.64442 0.0424675 -0.00317139 -8.94725 -0.0880572 2.14686 
6.25759 101.68 24.6938 -133.918 -83.6527 -134.376 -174.794 -2.73039 89.0312 -11.8237 4.7425 0.304277 70.4718 6.0031 -1.3325 17.4312 -9.63153 9.12709 173.735 -1.46923 88.4181 -13.8299 -12.9781 -0.861861 67.3976 -4.2848 1.28601 26.2407 0.300144 3.74229 0.29131 7.34512 -90.1784 12.1844 0.494681 -0.410967 0.513504 0.476103 -0.432336 -22.0222 0.595312 -0.243294 -2.00953 0.595314 -0.24329 89.6852 -31.1175 -106.952 41.6334 -17.0874 -7.60229 3.58574 -29.7289 -14.2932 -25.885 -1.52401 -4.85676 -89.1199 -54.2834 80.8673 -22.2059 17.5889 -11.4716 -3.50399 13.418 -10.506 36.5498 4.93174 9.78677 9.01602 -0.00105166 0.187437 -9.6003 -0.150214 1.62152 
6.174 101.713 24.7087 -134.606 -83.6954 -135.021 -174.644 -2.78776 89.1978 -11.7996 5.07337 0.20633 70.524 6.13342 -1.18833 17.0146 -9.78002 8.79529 173.868 -1.49261 88.5833 -13.9423 -12.7293 -0.921413 67.2852 -4.16161 1.39321 26.1028 0.365304 3.59955 0.296537 7.34428 -90.1777 12.1862 0.505354 -0.410793 0.515266 0.486783 -0.432646 -22.0205 0.605454 -0.239922 -2.00781 0.605445 -0.23993 89.6136 -31.335 -107.009 41.4657 -17.1231 -7.51053 3.86065 -30.0975 -13.8585 -25.9203 -1.42817 -5.48416 -89.1065 -54.0925 80.851 -22.2928 17.6248 -11.5077 -3.44401 13.1987 -10.3613 33.5025 4.1673 8.74309 8.8811 -0.132209 -0.0801452 -9.45769 -0.226026 1.73803 
6.18024 101.695 24.7427 -136.955 -83.9371 -137.383 -174.745 -2.67158 89.1611 -12.0566 5.37252 0.326898 70.5911 6.22195 -1.12234 17.1556 -9.60368 8.58939 173.731 -1.54925 88.5178 -13.8786 -12.574 -0.769934 67.1392 -4.08528 1.35636 27.131 0.146324 2.90656 0.26862 7.35366 -90.1998 12.1673 0.439432 -0.447422 0.496357 0.419316 -0.466324 -22.0391 0.553581 -0.294667 -2.02643 0.55359 -0.294656 89.6122 -31.2862 -107.03 41.4307 -17.0355 -7.56775 4.18892 -29.3242 -13.5896 -27.5874 -1.09907 -7.0178 -89.2821 -54.446 80.6657 -22.1637 17.2576 -11.6379 -3.01736 13.2484 -10.1933 26.9038 2.76804 6.54318 8.91578 -0.0429879 0.348013 -9.38276 -0.209117 1.41168 
